<mxfile host="app.diagrams.net" modified="2023-07-02T22:08:26.519Z" agent="Mozilla/5.0 (Windows NT 10.0; Win64; x64) AppleWebKit/537.36 (KHTML, like Gecko) Chrome/114.0.0.0 Safari/537.36" etag="tuAB2K6ZAwZUcN8fxpiK" version="21.5.2" type="device">
  <diagram name="PÃ¡gina-1" id="VHnRYB-Pnip1US0FHjOz">
    <mxGraphModel dx="1173" dy="616" grid="1" gridSize="10" guides="1" tooltips="1" connect="1" arrows="1" fold="1" page="1" pageScale="1" pageWidth="827" pageHeight="1169" math="0" shadow="0">
      <root>
        <mxCell id="0" />
        <mxCell id="1" parent="0" />
        <mxCell id="C-uQxye3BFiUdm0gClUF-1" value="" style="rounded=0;whiteSpace=wrap;html=1;fillColor=#fad9d5;strokeColor=#ae4132;" vertex="1" parent="1">
          <mxGeometry width="820" height="160" as="geometry" />
        </mxCell>
        <mxCell id="C-uQxye3BFiUdm0gClUF-3" value="ICONO DE LA EMPRESA" style="ellipse;whiteSpace=wrap;html=1;aspect=fixed;" vertex="1" parent="1">
          <mxGeometry x="10" width="160" height="160" as="geometry" />
        </mxCell>
        <mxCell id="C-uQxye3BFiUdm0gClUF-4" value="Inicia sesion" style="rounded=0;whiteSpace=wrap;html=1;" vertex="1" parent="1">
          <mxGeometry x="670" y="50" width="120" height="60" as="geometry" />
        </mxCell>
        <mxCell id="C-uQxye3BFiUdm0gClUF-5" value="Contacto" style="rounded=0;whiteSpace=wrap;html=1;" vertex="1" parent="1">
          <mxGeometry x="510" y="50" width="120" height="60" as="geometry" />
        </mxCell>
        <mxCell id="C-uQxye3BFiUdm0gClUF-6" value="Nosotros" style="rounded=0;whiteSpace=wrap;html=1;" vertex="1" parent="1">
          <mxGeometry x="354" y="50" width="120" height="60" as="geometry" />
        </mxCell>
        <mxCell id="C-uQxye3BFiUdm0gClUF-7" value="" style="rounded=0;whiteSpace=wrap;html=1;fillColor=#fad9d5;strokeColor=#ae4132;" vertex="1" parent="1">
          <mxGeometry x="4" y="1030" width="820" height="139" as="geometry" />
        </mxCell>
        <mxCell id="C-uQxye3BFiUdm0gClUF-9" value="f" style="rounded=0;whiteSpace=wrap;html=1;" vertex="1" parent="1">
          <mxGeometry x="370" y="1070" width="30" height="30" as="geometry" />
        </mxCell>
        <mxCell id="C-uQxye3BFiUdm0gClUF-10" value="I" style="rounded=0;whiteSpace=wrap;html=1;" vertex="1" parent="1">
          <mxGeometry x="420" y="1070" width="30" height="30" as="geometry" />
        </mxCell>
        <mxCell id="C-uQxye3BFiUdm0gClUF-11" value="W" style="rounded=0;whiteSpace=wrap;html=1;" vertex="1" parent="1">
          <mxGeometry x="470" y="1070" width="30" height="30" as="geometry" />
        </mxCell>
        <mxCell id="C-uQxye3BFiUdm0gClUF-12" value="&lt;b&gt;San Luis Potosi, S.L.P.&lt;/b&gt;" style="rounded=0;whiteSpace=wrap;html=1;fillColor=#fad9d5;strokeColor=#ae4132;" vertex="1" parent="1">
          <mxGeometry x="280" y="1110" width="330" height="30" as="geometry" />
        </mxCell>
      </root>
    </mxGraphModel>
  </diagram>
</mxfile>
